<svg width="36" height="53" viewBox="0 0 36 53" fill="none" xmlns="http://www.w3.org/2000/svg">
<g filter="url(#filter0_d_7_300)">
<path d="M29.3821 41.794C28.022 43.4984 26.0125 44.5581 23.8378 44.7178L23.413 44.749C19.714 45.0208 16.2416 42.9445 14.7303 39.5574L8.33187 25.2177C7.96775 24.4017 7.70443 23.5443 7.54771 22.6646L4.92442 7.93827C4.67025 6.51139 5.76742 5.20151 7.21675 5.20151C7.58923 5.20151 7.95628 5.11215 8.28707 4.94093L8.74894 4.70186L10.4109 3.87086C10.6332 3.75972 10.8266 3.59836 10.9757 3.39956C11.6137 2.54878 12.8887 2.54528 13.5315 3.39255L22.3774 15.0531C22.9559 15.8157 23.4323 16.6505 23.7948 17.5364L30.5087 33.9482C31.583 36.5744 31.152 39.5763 29.3821 41.794Z" fill="#1D5C17"/>
<path d="M28.9913 41.4821C27.7181 43.0776 25.837 44.0696 23.8012 44.2192L23.3764 44.2504C19.8875 44.5067 16.6123 42.5484 15.1869 39.3537L8.78847 25.014C8.44091 24.2351 8.18955 23.4167 8.03996 22.5769L5.41667 7.85058C5.21708 6.73011 6.07865 5.70151 7.21675 5.70151C7.66922 5.70151 8.11508 5.59296 8.51691 5.38497L8.97254 5.14907L8.97878 5.14591L10.6346 4.31807C10.9263 4.17222 11.18 3.96046 11.3757 3.69956C11.8144 3.11453 12.6912 3.11213 13.1331 3.69474L21.979 15.3553C22.5312 16.0832 22.986 16.8801 23.332 17.7257L30.0459 34.1375C31.0516 36.5959 30.6481 39.4061 28.9913 41.4821Z" stroke="#1D5C17"/>
</g>
<path d="M10.2488 28.9673L14.7341 26.5074L18.7341 24.5074L25.7488 21.9673" stroke="black" stroke-width="5"/>
<path d="M12.634 29.0654L11.5241 26.5742L13.4833 25.7013L14.5933 28.1924L14.2105 28.363L13.2595 26.2286L12.0658 26.7605L13.0168 28.8948L12.634 29.0654ZM15.4236 27.146L15.7652 24.6845L16.2064 24.488L17.3164 26.9791L16.9336 27.1497L16.0751 25.2229L15.7399 27.6815L15.2923 27.881L14.1823 25.3898L14.5651 25.2193L15.4236 27.146ZM18.0174 26.6668L16.9074 24.1756L17.926 23.7218C18.1941 23.6023 18.4341 23.568 18.6459 23.6187C18.8577 23.6695 19.008 23.7943 19.0966 23.9933C19.1641 24.1447 19.1715 24.282 19.1188 24.4052C19.0657 24.5274 18.9753 24.6344 18.8478 24.7262C18.9455 24.6982 19.0491 24.6909 19.1588 24.7043C19.2695 24.7171 19.3737 24.7562 19.4715 24.8215C19.5688 24.8857 19.6466 24.9832 19.7048 25.1141C19.7617 25.2417 19.7801 25.3702 19.76 25.4996C19.7399 25.6291 19.6824 25.75 19.5873 25.8624C19.4922 25.9747 19.3603 26.0684 19.1916 26.1436L18.0174 26.6668ZM18.2246 26.1546L19.0356 25.7933C19.1675 25.7345 19.2568 25.6571 19.3034 25.5612C19.3501 25.4652 19.3493 25.3632 19.3011 25.2551C19.2438 25.1264 19.1615 25.0419 19.0541 25.0016C18.9463 24.9603 18.8264 24.969 18.6945 25.0278L17.8835 25.3891L18.2246 26.1546ZM17.7361 25.0582L18.3914 24.7663C18.4941 24.7205 18.5759 24.6672 18.6369 24.6063C18.6974 24.5444 18.7354 24.4782 18.7507 24.4079C18.7666 24.336 18.7582 24.2633 18.7254 24.1898C18.6787 24.0849 18.5983 24.0222 18.4842 24.0018C18.3696 23.9803 18.2356 24.0037 18.0821 24.0721L17.4268 24.3641L17.7361 25.0582ZM21.6172 25.1251C21.3923 25.2253 21.1711 25.2597 20.9536 25.2283C20.7373 25.1964 20.5386 25.1054 20.3577 24.9554C20.1779 24.8048 20.0307 24.6009 19.916 24.3435C19.8004 24.084 19.7465 23.8366 19.7543 23.6011C19.7632 23.3652 19.8282 23.1561 19.9492 22.9739C20.0712 22.7912 20.2447 22.6498 20.4696 22.5496C20.6945 22.4494 20.9151 22.4152 21.1315 22.4471C21.349 22.4785 21.5478 22.57 21.7281 22.7217C21.9095 22.8728 22.058 23.0781 22.1736 23.3376C22.2883 23.595 22.3409 23.8411 22.3315 24.0759C22.3232 24.3103 22.258 24.5188 22.136 24.7015C22.015 24.8837 21.842 25.0249 21.6172 25.1251ZM21.464 24.7813C21.6348 24.7051 21.7558 24.5987 21.8271 24.462C21.8984 24.3253 21.9287 24.1738 21.9181 24.0074C21.9075 23.8411 21.8651 23.6747 21.7909 23.5082C21.7167 23.3417 21.6211 23.1983 21.504 23.0781C21.387 22.9579 21.2535 22.878 21.1037 22.8385C20.954 22.799 20.7936 22.8173 20.6228 22.8934C20.452 22.9695 20.3312 23.0765 20.2604 23.2143C20.1896 23.3521 20.1597 23.5047 20.1708 23.6721C20.1819 23.8395 20.2246 24.0065 20.2988 24.173C20.373 24.3395 20.4683 24.4823 20.5849 24.6014C20.7015 24.7206 20.8344 24.7993 20.9837 24.8378C21.133 24.8762 21.2931 24.8574 21.464 24.7813Z" fill="white"/>
<path d="M4.14208 6.0578L12.1585 1.63509L13.7413 3.04605L13.1246 3.38626L5.10821 7.80897L4.49156 8.14918L4.14208 6.0578Z" fill="#757575"/>
<defs>
<filter id="filter0_d_7_300" x="0.887695" y="2.75928" width="34.2039" height="50.0136" filterUnits="userSpaceOnUse" color-interpolation-filters="sRGB">
<feFlood flood-opacity="0" result="BackgroundImageFix"/>
<feColorMatrix in="SourceAlpha" type="matrix" values="0 0 0 0 0 0 0 0 0 0 0 0 0 0 0 0 0 0 127 0" result="hardAlpha"/>
<feOffset dy="4"/>
<feGaussianBlur stdDeviation="2"/>
<feComposite in2="hardAlpha" operator="out"/>
<feColorMatrix type="matrix" values="0 0 0 0 0 0 0 0 0 0 0 0 0 0 0 0 0 0 0.25 0"/>
<feBlend mode="normal" in2="BackgroundImageFix" result="effect1_dropShadow_7_300"/>
<feBlend mode="normal" in="SourceGraphic" in2="effect1_dropShadow_7_300" result="shape"/>
</filter>
</defs>
</svg>
